<svg xmlns="http://www.w3.org/2000/svg" viewBox="0 0 200 200" width="200" height="200">
  <defs>
    <radialGradient id="bgGlow" cx="50%" cy="50%" r="50%">
      <stop offset="0%" stop-color="#4da3ff" stop-opacity="0.18" />
      <stop offset="70%" stop-color="#4da3ff" stop-opacity="0" />
    </radialGradient>
    <filter id="bubbleShadow" x="-50%" y="-50%" width="200%" height="200%">
      <feDropShadow dx="0" dy="2" stdDeviation="4" flood-color="#000000" flood-opacity="0.18" />
    </filter>
  </defs>

  <circle cx="100" cy="100" r="100" fill="url(#bgGlow)" />

  <circle cx="30" cy="45" r="4" fill="#4da3ff" opacity="0.4" />
  <circle cx="165" cy="55" r="4" fill="#4da3ff" opacity="0.4" />
  <circle cx="25" cy="150" r="4" fill="#4da3ff" opacity="0.4" />
  <circle cx="150" cy="130" r="3" fill="#4da3ff" opacity="0.4" />

  <g transform="translate(68,50) scale(2.6)" fill="none" stroke="#4da3ff" stroke-width="1.5" stroke-linecap="round" stroke-linejoin="round" opacity="0.45">
    <path d="M8 3.5c1 1 2 1.5 4 1.5s3 -.5 4 -1.5l4 2.5l-2 4l-2 -1v10h-8v-10l-2 1l-2 -4z" />
  </g>

  <circle cx="128" cy="132" r="24" fill="#ffffff" filter="url(#bubbleShadow)" />
  <g transform="translate(112,116) scale(1.4)" fill="none" stroke="#4da3ff" stroke-width="2" stroke-linecap="round" stroke-linejoin="round">
    <circle cx="11" cy="11" r="7"></circle>
    <line x1="21" y1="21" x2="16" y2="16"></line>
  </g>
</svg>
